# xmcd
#
# Track frame offsets:
#	150
#	23255
#	36096
#	48399
#	63027
#	79920
#	94541
#	113162
#	130800
#	146076
#	156136
#	177988
#	191606
#	207134
#	220349
#	243140
#
# Disc length: 3369 seconds
#
# Revision: 1
# Processed by: cddbd v1.5.2PL0 Copyright (c) Steve Scherf et al.
# Submitted via: audiograbber 1.83.01
#
DISCID=cf0d2710
DTITLE=Various Artist - CBEP500-3
DYEAR=2007
DGENRE=Country
TTITLE0=Christmas (Tractors) - Boogie Woogie Santa Claus
TTITLE1=Christmas (Brooks and Dunn) - Santa's Coming Over To Your House
TTITLE2=Christmas (Lee Ann Womack) - Man With The Bag, The
TTITLE3=Christmas (Ronnie Milsap) - It;s Christmas
TTITLE4=Christmas (Ricky Skaggs and James Taylor) - New Shining Star
TTITLE5=Christmas (Keith Harling) - Santa's Got A Semi
TTITLE6=Christmas (Kathy Mattea) - Star, The
TTITLE7=Christmas (Stella Parton) - Deck The Halls
TTITLE8=Christmas (Waylon Jennings) - Away In A Manger
TTITLE9=Christmas (Tom T. Hall) - Jolly Old St. Nicholas
TTITLE10=Christmas (Mickey Gilley) - Blue Christmas
TTITLE11=Christmas (Boxcar Willie) - Joy To The World
TTITLE12=Christmas (Waylon Jennings) - O' Come All Ye Faithful
TTITLE13=Christmas (Mickey Gilley) - Rockin' Around The Christmas Tree
TTITLE14=Christmas (Helen Cornelius) - O' Holy Night
TTITLE15=Christmas (Porter Wagoner) - We Wish You A Merry Christmas
EXTD=
EXTT0=
EXTT1=
EXTT2=
EXTT3=
EXTT4=
EXTT5=
EXTT6=
EXTT7=
EXTT8=
EXTT9=
EXTT10=
EXTT11=
EXTT12=
EXTT13=
EXTT14=
EXTT15=
PLAYORDER=
